<svg xmlns="http://www.w3.org/2000/svg" viewBox="0 0 34 25" width="34" height="25">
	<style>
		tspan { white-space:pre }
		.shp0 { fill: #ed1d1d } 
	</style>
	<g id="Layer 1">
		<g id="&lt;Group&gt;">
			<g id="&lt;Group&gt;">
				<path id="&lt;Compound Path&gt;" fill-rule="evenodd" class="shp0" d="M11.86 3.78C12.99 2.39 15.36 1.49 17.84 2.46C22.96 4.17 22.57 7.08 25.98 6.52C26.21 6.49 26.55 6.48 26.75 6.36C26.12 6 25.31 5.98 24.95 5.36C25.5 4.87 27.36 4.43 28.23 4.43C31.7 4.45 33.3 8.21 32.45 12.16C31.66 15.85 29.1 18.24 26.09 18.88C25.12 19.08 25.19 19.12 24.59 18.64C24.12 18.26 23.59 18.12 23.35 17.79C24.55 17.52 26.73 15.28 26.72 13.56C26.47 13.68 25.78 14.51 25.49 14.76C25.07 15.13 24.71 15.47 24.22 15.82C23.08 16.63 22.27 16.82 20.66 16.75C20.18 17.16 16.72 16.07 16.58 15.58C15.32 13.95 15.17 14.06 14.69 12.63C14.48 11.98 14.54 13.17 14.56 14.09C14.59 15.48 16.71 16.8 16.93 16.86C16.01 16.87 15.08 16.98 14.17 17.12C12.47 17.37 9.27 15.74 8.53 14.23C8.39 15.27 8.93 16.49 9.34 16.94C9.9 17.55 10.67 17.8 11.73 18.05C11.34 18.25 10.98 18.37 10.6 18.61C9.72 19.17 9.5 20.03 6.74 19.13C0.94 17.26 2.93 9.99 8.29 6.61L8.53 7.47C8.62 7.76 8.72 8 8.85 8.24C9.09 8.69 9.39 9.18 9.91 9.37C9.56 6.61 10.52 5.41 11.86 3.78ZM16.95 16.86C16.95 16.86 16.94 16.86 16.93 16.86C16.94 16.86 16.95 16.86 16.95 16.86ZM3.75 9.05C2.42 9.58 0.97 9.02 0.67 7.9C1.72 7.05 3.48 8.06 3.75 9.05ZM26.42 0.58C26.53 1.94 25.15 3.12 23.48 3.07C23.38 1.86 24.92 0.06 26.42 0.58ZM33.21 16.41C32.67 16.26 32.31 15.27 33.67 15.32C34.04 15.84 33.95 16.61 33.21 16.41ZM0.44 13.81C0 13.69 -0.3 12.87 0.82 12.91C1.13 13.35 1.06 13.97 0.44 13.81ZM6.24 24.2C5.46 23.99 4.94 22.55 6.9 22.62C7.45 23.39 7.32 24.49 6.24 24.2ZM9.17 21.61C8.67 21.48 8.33 20.54 9.6 20.59C9.96 21.09 9.87 21.8 9.17 21.61ZM29.17 23.3C27.05 23.71 25.06 22.48 24.92 20.73C26.72 19.76 29.05 21.75 29.17 23.3ZM11.76 20.71C11.83 19.4 11.69 19.41 12.44 18.98C15.28 17.33 20.19 17.46 22.77 18.89L22.6 22.56C19.2 23.64 15.39 24.37 11.67 22.61C11.7 21.81 11.72 21.52 11.76 20.71Z" />
			</g>
		</g>
	</g>
</svg>