<svg xmlns="http://www.w3.org/2000/svg" viewBox="0 0 20 20" width="20" height="20">
	<defs>
		<clipPath clipPathUnits="userSpaceOnUse" id="cp1">
			<path d="M-2 -1L22 -1L22 22L-2 22L-2 -1Z" />
		</clipPath>
	</defs>
	<style>
		tspan { white-space:pre }
		.shp0 { fill: #535b72;stroke: #535b72;stroke-width: 0.5 } 
	</style>
	<g id="Layer 1">
		<g id="&lt;Group&gt;">
			<g id="Group 3-3 1 ">
				<g id="&lt;Clip Group&gt;" clip-path="url(#cp1)">
					<g id="Group 3-4 1 ">
						<path id="Fill 1-2 1 " fill-rule="evenodd" class="shp0" d="M16.74 19L3.26 19C2.71 19.04 2.16 18.93 1.66 18.68C1.2 18.36 0.94 17.8 1 17.23C1 16.91 1.04 16.58 1.1 16.26L2.65 7.29C2.98 5.33 4.24 4.11 5.94 4.11L6.59 4.11C6.8 3.6 7.06 3.11 7.37 2.65C7.92 1.71 8.91 1.09 10 1C11.09 1.09 12.08 1.71 12.63 2.65C12.94 3.11 13.2 3.6 13.41 4.11L14.06 4.11C15.76 4.11 17.02 5.33 17.35 7.29L18.9 16.26C18.96 16.58 19 16.91 19 17.23C19.06 17.8 18.8 18.36 18.34 18.68C17.84 18.93 17.29 19.04 16.74 19ZM16.78 18.28C17.18 18.31 17.58 18.24 17.94 18.08C18.14 17.95 18.25 17.77 18.26 17.23C18.26 16.95 18.23 16.66 18.17 16.38L16.62 7.42C16.3 5.74 15.41 4.84 14.04 4.83L13.68 4.83C13.94 5.64 14.14 6.46 14.28 7.3C14.3 7.41 14.26 7.52 14.19 7.6C14.12 7.68 14.01 7.73 13.9 7.73C13.72 7.73 13.57 7.59 13.55 7.41C13.39 6.54 13.17 5.68 12.91 4.83L7.09 4.83C6.8 5.67 6.58 6.53 6.44 7.41C6.37 7.7 6.2 7.81 6.05 7.81C5.95 7.81 5.86 7.76 5.8 7.69C5.72 7.58 5.69 7.43 5.72 7.3C5.88 6.47 6.08 5.65 6.32 4.83L5.96 4.83C4.59 4.84 3.7 5.73 3.38 7.42L1.83 16.38C1.77 16.66 1.74 16.95 1.73 17.23C1.74 17.77 1.86 17.95 2.06 18.08C2.42 18.24 2.82 18.31 3.22 18.28L16.78 18.28ZM10 1.72C9.15 1.81 8.39 2.31 7.98 3.06C7.75 3.39 7.56 3.75 7.39 4.11L12.61 4.11C12.44 3.75 12.25 3.39 12.02 3.06C11.62 2.3 10.86 1.8 10 1.72Z" />
					</g>
				</g>
			</g>
		</g>
	</g>
</svg>