<svg xmlns="http://www.w3.org/2000/svg" width="17.999" height="18.982" viewBox="0 0 17.999 18.982"><defs><style>.a{fill:#ed1d1d;}</style></defs><g transform="translate(0)"><g transform="translate(0)"><path class="a" d="M8.622,0H0V3.522H5.061A4.664,4.664,0,0,1,3.183,6.6l-.017.118L5.892,8.9l.189.019A9.439,9.439,0,0,0,8.816,1.94,8.4,8.4,0,0,0,8.622,0Z" transform="translate(9.183 7.761)"/><path class="a" d="M8.2,7.614a8.59,8.59,0,0,0,6.081-2.3l-2.9-2.32A5.31,5.31,0,0,1,8.2,3.944,5.551,5.551,0,0,1,2.979,0L2.872.009.037,2.277,0,2.383a9.151,9.151,0,0,0,8.2,5.23" transform="translate(0.98 11.368)"/><path class="a" d="M3.959,6.184a6.02,6.02,0,0,1-.306-1.877,6.327,6.327,0,0,1,.3-1.877L3.944,2.3,1.073,0,.98.046a9.755,9.755,0,0,0,0,8.521L3.959,6.184" transform="translate(0 5.184)"/><path class="a" d="M8.2,3.67a5,5,0,0,1,3.551,1.413l2.592-2.615A8.669,8.669,0,0,0,8.2,0,9.151,9.151,0,0,0,0,5.23L2.969,7.614A5.573,5.573,0,0,1,8.2,3.67" transform="translate(0.98)"/></g></g></svg>