<svg xmlns="http://www.w3.org/2000/svg" viewBox="0 0 16 14" width="16" height="14">
	<style>
		tspan { white-space:pre }
		.shp0 { fill: #515970 } 
	</style>
	<g id="Layer 1">
		<g id="&lt;Group&gt;">
			<g id="Group 1 ">
				<path id=" Color-2 1 " fill-rule="evenodd" class="shp0" d="M13.7 1.93L13.7 2.17C13.7 2.52 13.43 2.8 13.08 2.8L10.54 2.8C10.15 3.81 9.03 4.31 8.02 3.92C7.51 3.72 7.1 3.32 6.9 2.8L1.31 2.8C0.97 2.79 0.7 2.51 0.7 2.17L0.7 1.93C0.7 1.58 0.97 1.31 1.31 1.3L6.9 1.3C7.29 0.3 8.42 -0.21 9.42 0.18C9.93 0.38 10.34 0.79 10.54 1.3L13.08 1.3C13.42 1.3 13.7 1.58 13.7 1.93ZM8 2.05C8.01 2.45 8.34 2.77 8.74 2.76C9.14 2.76 9.46 2.42 9.46 2.02C9.45 1.63 9.12 1.31 8.73 1.31C8.32 1.31 7.99 1.64 7.99 2.04C7.99 2.04 7.99 2.05 7.99 2.05L8 2.05Z" />
				<path id=" Color-3 1 " fill-rule="evenodd" class="shp0" d="M13.7 11.93L13.7 12.17C13.7 12.52 13.43 12.8 13.08 12.8L10.54 12.8C10.15 13.81 9.03 14.31 8.02 13.92C7.51 13.72 7.1 13.32 6.9 12.8L1.31 12.8C0.97 12.79 0.7 12.51 0.7 12.17L0.7 11.93C0.7 11.58 0.97 11.31 1.31 11.3L6.9 11.3C7.29 10.3 8.42 9.79 9.42 10.18C9.93 10.38 10.34 10.79 10.54 11.3L13.08 11.3C13.42 11.3 13.7 11.58 13.7 11.93ZM8 12.05C8.01 12.45 8.34 12.77 8.74 12.76C9.14 12.76 9.46 12.42 9.46 12.02C9.45 11.63 9.12 11.31 8.73 11.31C8.32 11.31 7.99 11.64 7.99 12.04C7.99 12.04 7.99 12.05 7.99 12.05L8 12.05Z" />
				<path id=" Color-4 1 " fill-rule="evenodd" class="shp0" d="M15.7 7.17C15.7 7.52 15.42 7.8 15.07 7.8L7.51 7.8C7.11 8.82 5.96 9.31 4.95 8.91C4.44 8.71 4.04 8.31 3.84 7.8L1.32 7.8C0.98 7.8 0.7 7.52 0.7 7.17L0.7 6.93C0.7 6.58 0.98 6.3 1.32 6.3L3.83 6.3C4.24 5.29 5.39 4.79 6.4 5.19C6.91 5.39 7.31 5.79 7.51 6.3L15.07 6.3C15.42 6.3 15.7 6.58 15.7 6.93L15.7 7.17ZM4.94 7.05C4.94 7.45 5.27 7.78 5.68 7.78C6.08 7.77 6.41 7.44 6.41 7.04C6.4 6.63 6.08 6.31 5.67 6.31C5.26 6.31 4.94 6.64 4.94 7.05L4.94 7.05Z" />
			</g>
		</g>
	</g>
</svg>