<svg xmlns="http://www.w3.org/2000/svg" viewBox="0 0 18 18" width="18" height="18">
	<defs>
		<clipPath clipPathUnits="userSpaceOnUse" id="cp1">
			<path d="M0 0L18 0L18 18L0 18L0 0Z" />
		</clipPath>
	</defs>
	<style>
		tspan { white-space:pre }
		.shp0 { fill: #ed1d1d } 
	</style>
	<g id="Layer 1">
		<g id="&lt;Group&gt;">
			<g id="Group 3 1 ">
				<g id="&lt;Clip Group&gt;" clip-path="url(#cp1)">
					<g id="Group 3-2 1 ">
						<path id="Fill 1 1 " fill-rule="evenodd" class="shp0" d="M17.16 18C16.93 18 16.72 17.91 16.56 17.74L12.35 13.54C9.58 15.76 5.63 15.76 2.86 13.54C-0.42 10.92 -0.95 6.14 1.67 2.86C3.11 1.05 5.29 0 7.61 0C11.48 0 14.73 2.91 15.16 6.76C15.38 8.76 14.8 10.78 13.54 12.35L17.75 16.55L17.75 16.56L17.76 16.57C18.09 16.9 18.08 17.44 17.75 17.76C17.59 17.91 17.38 18 17.16 18L17.16 18ZM7.62 1.73C4.36 1.73 1.72 4.37 1.72 7.63C1.72 10.89 4.36 13.53 7.62 13.53C10.88 13.53 13.52 10.89 13.52 7.63C13.52 4.37 10.88 1.73 7.62 1.73Z" />
					</g>
				</g>
			</g>
		</g>
	</g>
</svg>