<svg xmlns="http://www.w3.org/2000/svg" width="35.356" height="22.098" viewBox="0 0 35.356 22.098"><defs><style>.a{fill:#6a6a6a;}</style></defs><g transform="translate(0 0)"><g transform="translate(0 0.001)"><path class="a" d="M33.124,17.049H2.232a2.224,2.224,0,0,1-1.769-.862A2.182,2.182,0,0,1,.07,14.3l.2-.771A10.065,10.065,0,0,1,10.073,6h15.21a10.067,10.067,0,0,1,9.808,7.527l.2.771a2.186,2.186,0,0,1-.393,1.888A2.228,2.228,0,0,1,33.124,17.049ZM10.073,8.21a7.858,7.858,0,0,0-7.667,5.864l-.2.77,30.914,0c.006,0,.019,0,.023-.009l-.2-.757A7.857,7.857,0,0,0,25.283,8.21Z" transform="translate(0 -6)"/></g><g transform="translate(15.467 0)"><path class="a" d="M15.1,11.524a1.1,1.1,0,0,1-.918-1.718L16.4,6.492a1.105,1.105,0,0,1,1.838,1.226l-2.21,3.315A1.1,1.1,0,0,1,15.1,11.524Z" transform="translate(-13.999 -5.999)"/></g><g transform="translate(8.838 0)"><path class="a" d="M9.1,11.524a1.1,1.1,0,0,1-.918-1.718L10.4,6.492a1.105,1.105,0,0,1,1.838,1.226l-2.21,3.315A1.1,1.1,0,0,1,9.1,11.524Z" transform="translate(-7.999 -5.999)"/></g><g transform="translate(22.097 0)"><path class="a" d="M21.1,11.524a1.1,1.1,0,0,1-.918-1.718L22.4,6.492a1.105,1.105,0,1,1,1.838,1.226l-2.21,3.315A1.1,1.1,0,0,1,21.1,11.524Z" transform="translate(-19.999 -5.999)"/></g><g transform="translate(2.21 8.84)"><path class="a" d="M3.1,20.629a1.1,1.1,0,0,1-1.1-1.1V15.1a1.1,1.1,0,0,1,2.21,0v4.419A1.1,1.1,0,0,1,3.1,20.629Z" transform="translate(-2 -14)"/></g><g transform="translate(30.936 8.84)"><path class="a" d="M29.1,20.629a1.1,1.1,0,0,1-1.1-1.1V15.1a1.1,1.1,0,1,1,2.21,0v4.419A1.1,1.1,0,0,1,29.1,20.629Z" transform="translate(-28 -14)"/></g><g transform="translate(0 14.364)"><path class="a" d="M30.936,26.734H4.419A4.424,4.424,0,0,1,0,22.315V20.1A1.1,1.1,0,0,1,1.1,19H13.811a1.1,1.1,0,1,1,0,2.21H2.21v1.1a2.212,2.212,0,0,0,2.21,2.21H30.936a2.212,2.212,0,0,0,2.21-2.21v-1.1H17.866a1.1,1.1,0,0,1,0-2.21H34.251a1.1,1.1,0,0,1,1.1,1.1v2.21A4.424,4.424,0,0,1,30.936,26.734Z" transform="translate(0 -19)"/></g><g transform="translate(9.392 8.839)"><path class="a" d="M15.129,22.839a2.766,2.766,0,0,1-2.259-1.173L8.7,15.74A1.105,1.105,0,0,1,10.51,14.47l4.168,5.924a.623.623,0,0,0,.831.086l6.6-6.182a1.1,1.1,0,0,1,1.51,1.613l-6.6,6.182A2.752,2.752,0,0,1,15.129,22.839Z" transform="translate(-8.5 -13.999)"/></g></g></svg>