<svg xmlns="http://www.w3.org/2000/svg" width="29.453" height="29.453" viewBox="0 0 29.453 29.453"><defs><style>.a{fill:#6a6a6a;}</style></defs><g transform="translate(0 0)"><g transform="translate(0 0)"><path class="a" d="M2.881,21.362a.918.918,0,0,1-.651-.27l-.617-.617a5.542,5.542,0,0,1,0-7.814L12.658,1.613a5.542,5.542,0,0,1,7.814,0l.62.62a.92.92,0,0,1-1.3,1.3l-.617-.617a3.794,3.794,0,0,0-5.219,0L2.915,13.96a3.7,3.7,0,0,0,0,5.219l.613.613a.92.92,0,0,1-.651,1.571Z"/></g><g transform="translate(8.09 8.09)"><path class="a" d="M13.585,30.152a5.521,5.521,0,0,1-3.905-1.61l-.62-.62a.92.92,0,0,1,1.3-1.3l.617.617a3.794,3.794,0,0,0,5.219,0L27.238,16.193a3.7,3.7,0,0,0,0-5.219l-.613-.613a.92.92,0,0,1,1.3-1.3l.617.617a5.542,5.542,0,0,1,0,7.814L17.494,28.539A5.524,5.524,0,0,1,13.585,30.152Z" transform="translate(-8.79 -8.79)"/></g><g transform="translate(0 0)"><path class="a" d="M4.848,29.453a4.848,4.848,0,0,1-3.428-8.275h0L21.178,1.419a4.848,4.848,0,0,1,6.854,6.857L8.275,28.033A4.819,4.819,0,0,1,4.848,29.453ZM2.722,22.479a3.007,3.007,0,1,0,4.252,4.252L26.731,6.974a3.007,3.007,0,1,0-4.252-4.252Z"/></g><g transform="translate(3.951 3.953)"><path class="a" d="M5.213,24.542a.92.92,0,0,1-.651-1.571A2.908,2.908,0,0,1,7.071,22.2c.615.039.834.029,1.093-.231s.268-.478.229-1.09a2.791,2.791,0,0,1,3.273-3.274c.612.039.833.029,1.093-.23s.27-.48.231-1.093a2.8,2.8,0,0,1,3.277-3.277c.612.039.833.029,1.093-.232s.271-.48.233-1.094a2.8,2.8,0,0,1,3.278-3.278c.617.037.835.028,1.1-.234s.272-.482.234-1.1a2.919,2.919,0,0,1,.77-2.51.919.919,0,1,1,1.3,1.3c-.261.261-.272.482-.234,1.1a2.919,2.919,0,0,1-.77,2.51,2.911,2.911,0,0,1-2.51.769c-.615-.037-.836-.027-1.1.234s-.27.48-.232,1.093a2.8,2.8,0,0,1-3.278,3.277c-.617-.037-.834-.029-1.093.232s-.27.48-.231,1.093a2.794,2.794,0,0,1-3.276,3.276c-.613-.039-.832-.029-1.093.23s-.268.478-.229,1.09a2.908,2.908,0,0,1-.765,2.507,2.906,2.906,0,0,1-2.508.767c-.613-.036-.833-.027-1.093.233A.918.918,0,0,1,5.213,24.542Z" transform="translate(-4.293 -4.295)"/></g></g></svg>