<svg xmlns="http://www.w3.org/2000/svg" viewBox="0 0 17 17" width="17" height="17">
	<style>
		tspan { white-space:pre }
		.shp0 { fill: #fabc41 } 
	</style>
	<g id="Layer 1">
		<g id="&lt;Group&gt;">
			<g id="Icon star-3 1 ">
				<path id="Icon star-4 1 " class="shp0" d="M8.45 13.8L12.47 16.23C12.93 16.51 13.52 16.37 13.8 15.91C13.93 15.69 13.97 15.44 13.91 15.19L12.85 10.62L16.4 7.53C16.81 7.19 16.86 6.58 16.52 6.17C16.35 5.98 16.11 5.85 15.85 5.83L11.17 5.43L9.34 1.12C9.13 0.63 8.56 0.41 8.07 0.62C7.84 0.72 7.66 0.9 7.57 1.12L5.73 5.43L1.05 5.83C0.52 5.88 0.13 6.35 0.18 6.88C0.2 7.13 0.32 7.36 0.5 7.52L4.06 10.6L2.99 15.17C2.87 15.69 3.19 16.21 3.71 16.34C3.96 16.39 4.22 16.35 4.43 16.22L8.45 13.8Z" />
			</g>
		</g>
	</g>
</svg>