<svg xmlns="http://www.w3.org/2000/svg" width="15.018" height="14.011" viewBox="0 0 15.018 14.011"><defs><style>.a{fill:none;stroke:#535b72;stroke-linecap:round;stroke-linejoin:round;stroke-miterlimit:10;}</style></defs><g transform="translate(0.509 0.5)"><path class="a" d="M7.453.274,9.225,3.766a.506.506,0,0,0,.381.269l3.961.56a.488.488,0,0,1,.28.838L10.98,8.151a.484.484,0,0,0-.145.435l.677,3.838a.5.5,0,0,1-.733.518L7.235,11.13a.516.516,0,0,0-.47,0L3.222,12.942a.5.5,0,0,1-.733-.518l.677-3.838a.484.484,0,0,0-.145-.435L.153,5.433a.488.488,0,0,1,.28-.838l3.961-.56a.506.506,0,0,0,.381-.269L6.547.274A.512.512,0,0,1,7.453.274Z"/></g></svg>