<svg xmlns="http://www.w3.org/2000/svg" width="13" height="15.001" viewBox="0 0 13 15.001"><defs><style>.a{fill:#535b72;}</style></defs><g transform="translate(0 0)"><path class="a" d="M5.911,14.765,1.954,10.911A6.367,6.367,0,0,1,0,6.289,6.163,6.163,0,0,1,1.911,1.822a6.692,6.692,0,0,1,9.179,0A6.166,6.166,0,0,1,13,6.289a6.369,6.369,0,0,1-1.953,4.621L7.088,14.758A.841.841,0,0,1,6.5,15h0A.842.842,0,0,1,5.911,14.765Z" transform="translate(0)"/><path class="a" d="M.068,3.585A2.937,2.937,0,0,1,2.16.229a3.843,3.843,0,0,1,4.249,1.1,2.687,2.687,0,0,1-.432,3.787A3.814,3.814,0,0,1,3.5,6,3.41,3.41,0,0,1,.068,3.585Z" transform="translate(3 3)"/></g></svg>