<svg xmlns="http://www.w3.org/2000/svg" width="14" height="15" viewBox="0 0 14 15"><defs><style>.a{fill:#535b72;}</style></defs><path class="a" d="M.338,15A.337.337,0,0,1,0,14.671V4.52a.339.339,0,0,1,.009-.066s0,0,0-.008,0-.014,0-.023a.025.025,0,0,1,0-.017s0-.009,0-.014a.357.357,0,0,1,.032-.057L2.993.145A.336.336,0,0,1,3.273,0h7.454a.337.337,0,0,1,.28.145l2.934,4.191a.23.23,0,0,1,.032.057s0,.009,0,.014,0,.013,0,.017.005.014.005.023,0,0,0,.008c0,.023,0,.044.009.066V14.671a.337.337,0,0,1-.339.329Z"/><path class="a" d="M2.67,0H.33C.15,0,0,.227,0,.5s.15.5.33.5H2.67C2.85,1,3,.773,3,.5S2.85,0,2.67,0Z" transform="translate(2 11)"/><path class="a" d="M1.639,0H.361C.163,0,0,.227,0,.5s.163.5.361.5H1.639C1.837,1,2,.773,2,.5S1.837,0,1.639,0Z" transform="translate(2 12)"/></svg>