<svg xmlns="http://www.w3.org/2000/svg" width="159.838" height="214.058" viewBox="0 0 159.838 214.058"><defs><style>.a{fill:#f49d3d;}.b{fill:#75342c;}.c{fill:#5e241f;}.d{fill:#ef0000;}.e{fill:#c663a3;}.f{fill:#f4b8da;}.g{fill:#ffbb12;}.h{fill:#f43b49;}.i{fill:#ff979b;}.j{fill:#c10017;}.k{fill:#71bc06;}.l{fill:#6b9e1a;}.m{fill:#ffe576;}.n{fill:#ffae4d;}.o{fill:#8e4640;}.p{fill:#fff;}.q{fill:#d67500;}.r{fill:#ffa171;}.s{fill:#f37e4e;}.t{fill:#333;}.u{fill:#ffc648;}.v{fill:#eda320;}.w{fill:#e82a2a;}.x{fill:#ff7415;}.y{fill:#cc1b1b;}.z{fill:#5e2d1e;}.aa{fill:#d36e4a;}.ab{fill:#fff9ee;}.ac{fill:#cc9340;}</style></defs><g transform="translate(0)"><g transform="translate(0 77.757)"><g transform="translate(0 0)"><path class="a" d="M129.966,28.546H16.348A16.538,16.538,0,0,1,.031,11.891V7.968C.031,3.573-.588,0,3.7,0h97.446l5.59,1.335a10.515,10.515,0,0,0,4.311.1L118.724,0h23.887c4.291,0,3.672,3.594,3.672,7.968v3.922A16.538,16.538,0,0,1,129.966,28.546Z" transform="translate(6.579 107.755)"/><path class="b" d="M141.074,22.878h-21.04l-4.951,1.109a11.712,11.712,0,0,1-5.466-.062l-4.249-1.047H82.491l-5.1.554a15.526,15.526,0,0,1-5.838-.185l-4.848-.37H50.291l-1.2.411a13.91,13.91,0,0,1-8.334-.411H11.49A11.494,11.494,0,0,1,0,11.439H0A11.494,11.494,0,0,1,11.49,0H141.074a10.3,10.3,0,0,1,10.293,10.248V12.63A10.3,10.3,0,0,1,141.074,22.878Z" transform="translate(3.578 85.144)"/><path class="c" d="M0,4.6s8.519,8.728,11.1,11.829c2.578,3.08,2.847,6.161,13.944,2.567s42.576-8.728,42.576-8.728a82.73,82.73,0,0,0,23.5,7.968c13.944,2.567,24.258,2.834,30.2.513s10.706-4.148,14.708-4.621c4.394-.513,7.715,3.2,7.715,3.2S148.149,2.3,133.689.251C123.107-1.269,0,4.6,0,4.6Z" transform="translate(10.591 83.764)"/><path class="d" d="M144.89,13.225H2.207A2.2,2.2,0,0,1,0,11.028V2.2A2.2,2.2,0,0,1,2.207,0H144.89A2.2,2.2,0,0,1,147.1,2.2v8.831A2.2,2.2,0,0,1,144.89,13.225Z" transform="translate(6.053 66.292)"/><path class="e" d="M0,4.908S16.647,16.881,46.433,17.353A39.9,39.9,0,0,0,78.963,1.766L68.051,1.746s-5.673,9.878-22.34,8.831C31.561,9.673,20.545,0,20.545,0Z" transform="translate(73.217 83.214)"/><path class="f" d="M0,6.161s6.7,4.58,18.978,6.079c11.985,1.479,18.668-1.6,23.371-4.354A33.622,33.622,0,0,0,50.93.719L46.371,0S46,1.992,41.07,5.442A25.052,25.052,0,0,1,22.464,9.981C14.79,8.892,12.6,8.338,8.231,5.442,3.837,2.526,0,6.161,0,6.161Z" transform="translate(95.021 83.111)"/><path class="g" d="M80.145,10.617c-10.706,1.273-39.44,7-52.312,9.816-3.816.821-10.355,2.362-14.935-2.916-.97-1.109-1.753-1.889-1.753-1.91-3.032-3.122-6.374-6.674-7.1-6.962C1.9,7.783-.263,7.434.026,4.046.232,1.581,1.862,0,3.615,0h142.58a3.184,3.184,0,0,1,3.177,3.163h0c0,.616-.639,6.428-1.217,5.853C141.244,2.156,95.141,8.831,80.145,10.617Z" transform="translate(5.037 79.558)"/><path class="h" d="M91.464,10.72H1.526A1.52,1.52,0,0,1,0,9.2V1.52A1.52,1.52,0,0,1,1.526,0H91.464a5.376,5.376,0,0,1,5.384,5.36h0A5.389,5.389,0,0,1,91.464,10.72Z" transform="translate(10.344 67.524)"/><path class="i" d="M26.177,11.5H1.217A1.217,1.217,0,0,1,0,10.289V1.212A1.217,1.217,0,0,1,1.217,0h24.96a1.217,1.217,0,0,1,1.217,1.212v9.077A1.2,1.2,0,0,1,26.177,11.5Z" transform="translate(31.858 66.826)"/><path class="j" d="M.293,3.573s-1.918,3.265,4.064,2.2C10.339,4.682,12.5,2.526,16.032,4.148s9.509,7.845,20.092,3.779c10.582-4.046,12.5-5.956,16.3-3.779C56.215,6.3,61.1,10.1,66.261,8.194,71.418,6.3,71.954,3.327,76.575,4.949s8.251,5.853,18.792,6.982,24.114,1.4,31.994-2.382,11.407-4.046,14.4-2.423a18.1,18.1,0,0,0,4.352,1.889V3.881L129.815.37,1.84,0Z" transform="translate(6.42 66.312)"/><path class="k" d="M4.815,1.725C1.577,4.374-1.084,6.264.442,10.617s4,4.723,6.271,4.723a32.131,32.131,0,0,0,9.509-2.074c2.847-1.13,7.22-.37,10.458,1.7s10.83,5.689,21.309.575c10.458-5.114,13.3-2.074,15.966-.575,2.661,1.52,8.932,3.224,12.17.185s6.89-1.787,11.593.185c40.781,17.168,45.918-4.272,59.037-.082,5.776,1.848,10.933,5.011,12.645-.678s-1.9-8.892-5.714-10.987C149.891,1.52,146.652,0,146.652,0Z" transform="translate(0 54.524)"/><path class="l" d="M7.977,0S7.337,1.314,2.964,5.319c-5.59,5.134-2.62,9.241,3.486,9.2,6.126-.062,9.674-3.943,13.573-4.99,3.9-1.068,7.1,2.464,10.273,4.58,3.2,2.115,8.148,3.881,17.018-3.183s12.047-.7,16.3,1.417,8.148,1.068,11.7-2.813S85.682,9.1,93.025,11.644c8.148,2.813,13.552,8.153,26.94,5.3,9.922-2.115,12.769-7.065,18.441-6.695,5.673.349,9.571,5.3,13.47,2.464,3.9-2.813-3.2-8.831-3.2-8.831Z" transform="translate(1.81 51.772)"/><path class="a" d="M76.137,0H73.662C35.439,0,0,25.013,0,55.572H0A3.364,3.364,0,0,0,3.383,58.94S16.172,60.316,40.9,60.316c25.826,0,54.932-1.376,54.932-1.376l10.19-.062c1.774-.144,12.005.062,12.005.062a94.154,94.154,0,0,0,13.821,1.027,85.748,85.748,0,0,0,13.718-1.027,3.531,3.531,0,0,0,3.527-3.512h0C149.1,24.952,113.6,0,76.137,0Z" transform="translate(4.506)"/><path class="m" d="M.9,4.93c4.187,5.956,6.725,9.18,10.623,9.529s15.945-3.183,25.517-5.648S59.383,1.049,35.619.7C11.9.351-4.048-2.114.9,4.93Z" transform="translate(14.185 82.473)"/><path class="n" d="M66.187.165c-16.4-1.253-35.253,4.58-50.889,19C3.829,29.738-1.142,50.562.219,52.615c.578.863,19.246,2.649,41.936,2.136,31.643-.719,56.273-.164,60.11-1.088C106.04,52.738,104.823,3.1,66.187.165Z" transform="translate(8.02 3.039)"/><path class="n" d="M89.153,23.186H63.616A122.855,122.855,0,0,0,48.7,22.344c-4.971,0-11.9.842-11.9.842H15.347A15.364,15.364,0,0,1,0,7.907V1.746A1.748,1.748,0,0,1,1.753,0S31.189,1.787,53.736,1.787C78.2,1.787,100.231,0,100.231,0a1.748,1.748,0,0,1,1.753,1.746v8.687A12.838,12.838,0,0,1,89.153,23.186Z" transform="translate(8.735 109.952)"/><path class="o" d="M.007,6.424c-.268,2.567,6.972,2.67,11.1,1.376s10.582.78,12.913,1.294a17.132,17.132,0,0,0,9.8-1.294c3.362-1.54,7.22-.513,9.551.513s15.739,0,12.913-1.54C53.33,5.171,43.119.673,40.273.838s-6.188-1.889-9.8-.1a14.814,14.814,0,0,1-9.551,1.15C18.84,1.392.007,6.424.007,6.424Z" transform="translate(39.236 95.725)"/><ellipse class="a" cx="2.083" cy="2.403" rx="2.083" ry="2.403" transform="translate(108.367 118.003)"/><ellipse class="a" cx="1.238" cy="1.191" rx="1.238" ry="1.191" transform="translate(108.845 111.853) rotate(-9.422)"/><path class="a" d="M1.978,3.955A1.978,1.978,0,0,0,1.97,0a1.978,1.978,0,0,0,.008,3.955Z" transform="matrix(0.546, -0.838, 0.838, 0.546, 6.961, 122.071)"/><ellipse class="a" cx="1.526" cy="1.52" rx="1.526" ry="1.52" transform="translate(15.191 129.749)"/><ellipse class="a" cx="1.526" cy="1.52" rx="1.526" ry="1.52" transform="translate(8.693 123.527)"/><ellipse class="a" cx="1.526" cy="1.52" rx="1.526" ry="1.52" transform="translate(22.7 108.494)"/><ellipse class="a" cx="1.526" cy="1.52" rx="1.526" ry="1.52" transform="translate(106.201 122.849)"/><ellipse class="a" cx="1.526" cy="1.52" rx="1.526" ry="1.52" transform="translate(85.821 131.68)"/><path class="p" d="M2.641,4.071A2.385,2.385,0,0,0,5.275,2.04,2.407,2.407,0,0,0,2.633,0,2.385,2.385,0,0,0,0,2.03,2.407,2.407,0,0,0,2.641,4.071Z" transform="translate(18.348 29.763) rotate(-30.001)"/><ellipse class="p" cx="2.033" cy="2.64" rx="2.033" ry="2.64" transform="translate(48.672 30.111) rotate(-86.421)"/><ellipse class="p" cx="2.64" cy="2.033" rx="2.64" ry="2.033" transform="translate(60.579 33.509) rotate(-2.349)"/><path class="p" d="M2.04,5.275a2.385,2.385,0,0,0,2.03-2.633A2.407,2.407,0,0,0,2.03,0,2.385,2.385,0,0,0,0,2.633,2.407,2.407,0,0,0,2.04,5.275Z" transform="translate(128.31 24.591) rotate(-59.999)"/><path class="p" d="M2.04,5.275a2.385,2.385,0,0,0,2.03-2.633A2.407,2.407,0,0,0,2.03,0,2.385,2.385,0,0,0,0,2.633,2.407,2.407,0,0,0,2.04,5.275Z" transform="translate(138.768 32.045) rotate(-59.999)"/><ellipse class="p" cx="2.033" cy="2.64" rx="2.033" ry="2.64" transform="translate(111.705 26.9) rotate(-87.377)"/><ellipse class="p" cx="2.033" cy="2.64" rx="2.033" ry="2.64" transform="matrix(0.107, -0.994, 0.994, 0.107, 94.279, 25.148)"/><ellipse class="p" cx="2.033" cy="2.64" rx="2.033" ry="2.64" transform="translate(100.306 39.05) rotate(-87.386)"/><ellipse class="p" cx="2.033" cy="2.64" rx="2.033" ry="2.64" transform="translate(103.607 10.732) rotate(-79.274)"/><ellipse class="p" cx="2.64" cy="2.033" rx="2.64" ry="2.033" transform="translate(28.824 17.444) rotate(-11.082)"/><ellipse class="p" cx="2.64" cy="2.034" rx="2.64" ry="2.034" transform="matrix(0.976, -0.219, 0.219, 0.976, 58.912, 6.948)"/></g></g><g transform="translate(13.636 0)"><path class="q" d="M.871,4.664,15.546,0,10.223,5.908,3.7,9.111,1.322,9.018C1.322,8.987-1.324,6.188.871,4.664Z" transform="translate(15.954 64.403)"/><g transform="translate(0)"><path class="r" d="M4.84.243c.429-.9,1.532.836,2.849,2.943a25.229,25.229,0,0,0,2.542,3.531c.429.527.582,2.168.521,3.841a31.264,31.264,0,0,0,.184,3.841L7.474,16.165S5.238,14.8,3.737,13.749C2.206,12.727,1.133,9.443.582,7.8A9.083,9.083,0,0,1,0,5.757L.888,2.628l.827-.31,1.47,1.518.858.805S7.413,8.08,6.586,6.035C5.728,3.96,3.89,2.225,4.84.243Z" transform="translate(32.139 26.063)"/><path class="s" d="M.909,0S3.053,2.788,4.217,4.368s1.1,2.478.337,2.819c-.888.4-1.44,1.022-2.451-.093A13.668,13.668,0,0,1,.051,2.2C-.255.372.909,0,.909,0Z" transform="translate(35.243 30.705)"/><path class="t" d="M6.487,15.574h0a.743.743,0,0,1-.98-.434L.054,1.046A.757.757,0,0,1,.483.054h0a.743.743,0,0,1,.98.434L6.915,14.583A.757.757,0,0,1,6.487,15.574Z" transform="translate(31.81 22.627)"/><path class="r" d="M4.4.493c.49,1.146-1.256,1.487-2.42,1.673C.844,2.352.2,2.6.017,1.392S1.211.122,2.375.06C3.509-.033,4.152-.1,4.4.493Z" transform="translate(30.162 27.3)"/><path class="t" d="M2.044,2.934h0a.533.533,0,0,1-.735-.155L.084.828A.546.546,0,0,1,.237.084h0A.533.533,0,0,1,.972.239L2.2,2.191A.52.52,0,0,1,2.044,2.934Z" transform="translate(39.254 42.299)"/><path class="r" d="M.031,1.815c.276,1.084,1.133.9,2.542.31s1.654-.9,1.409-1.673S2.726.08,1.9.328C1.072.607-.215.793.031,1.815Z" transform="translate(30.914 29.231)"/><path class="r" d="M.038,1.815c.276,1.084,1.133.9,2.542.31S4.235,1.227,3.99.452,2.734.08,1.907.328C1.049.576-.238.793.038,1.815Z" transform="translate(31.948 31.306)"/><path class="r" d="M6.525,9.417,4.1,0S2.144.96,0,2.014L3,10.9C5.116,9.975,6.525,9.417,6.525,9.417Z" transform="translate(60.688 43.747)"/><path class="r" d="M20.156,9.448c-1.133.527-2.114.991-2.665,1.239-1.93.805-2.726,1.8-4.35.155C11.548,9.231,3.707,0,3.707,0L0,2.106S2.818,7.744,6.678,13.754s4.013,6.165,5.636,7c1.593.805,2.573,1.611,7.382-.805a.668.668,0,0,0,.153-.093c-.092-.774-.153-1.735-.245-2.912A40.985,40.985,0,0,1,20.156,9.448Z" transform="translate(38.143 37.427)"/><path class="s" d="M2.923,0C2.126.4,1.3.774.533,1.146a35.884,35.884,0,0,0-.49,7.5C.135,9.82.2,10.749.288,11.555,2.341,10.532,4.332,9.6,5.925,8.891Z" transform="translate(57.766 45.729)"/><path class="u" d="M17,0S8.481,4.213,5.264,6.01.271,7.961.118,8.767a16.4,16.4,0,0,0,1.593,9.108c2.083,4.213,2.879,5.855,4.013,7s7.566-9.417,9.006-14.312A81.837,81.837,0,0,0,17,0Z" transform="translate(59.866 36.25)"/><path class="r" d="M0,.737A144.446,144.446,0,0,0,4.013,16.846c2.879,9.417,3.86,12.67,4.656,14.312a3.5,3.5,0,0,0,5.575.743c.7-.774-.582-4.647-1.409-7.094C12.038,22.36,9.619,3.68,9.312,1.233S0,.737,0,.737Z" transform="translate(99.224 62.216)"/><path class="v" d="M13.907,0C12.345,2.509,9.864,6.412,7.382,10.161A23.992,23.992,0,0,1,0,17.5,21.347,21.347,0,0,0,2.91,22.4l3.982-3.965A48.527,48.527,0,0,0,12.038,8.209C12.9,5.3,13.509,2.106,13.907,0Z" transform="translate(62.588 38.604)"/><path class="r" d="M3.317,0s.276,1.27,2.512,2.168,3.768.867,4.9,2.076S15.171,8.4,15.937,9.138c.766.774-.521,1.7-3.615.217C9.259,7.868,8.065,6.289,6.533,6.319a11.616,11.616,0,0,1-4.84-.682C.1,4.956-1.768,1.8,3.317,0Z" transform="translate(107.7 88.819)"/><path class="r" d="M6.831,0l-2.7,7.032c-.123.279-1.256,2.7-1.409,2.974L0,14.869l.613,2.354H9.68L10.874,14s-.95.124-.613-2.137C10.568,9.6,13.815,1.456,13.815,1.456Z" transform="translate(9.624 77.636)"/><path class="s" d="M3.063,0,1.409,4.987,0,8.55a6.809,6.809,0,0,0,3.615,1.642A11.682,11.682,0,0,0,7.107,10.1L9.465,4.12Z" transform="translate(14.066 75.127)"/><path class="r" d="M3.186,1.3s-.031,4.151-.153,7.311A41.985,41.985,0,0,1,2.389,14.5L0,20.786l4.442,5.638,2.542-3.686,2.083-7.4,1.1-7.4L11.763,0Z" transform="translate(49.875 125.125)"/><path class="s" d="M2.573,9.82a17.77,17.77,0,0,0,4.595-.186l.613-3.872.766-4.74L.184,0V4.585L0,8.8A4.85,4.85,0,0,0,2.573,9.82Z" transform="translate(52.877 123.391)"/><g transform="translate(78.792 21.659)"><path class="r" d="M.139.218V.28C.17.218.231.156.261.094Z" transform="translate(2.587 5.916)"/><path class="r" d="M12.866,5.948C12.774,4.461,12.59,1.921,12.437,0c-.092.805-.613,4.523-1.685,6.072C9.557,7.837,7.29,10.347,4.472,11a3.294,3.294,0,0,1-1.746,0c-.031.372-.092.743-.153,1.115C1.93,15.861,0,16.976,0,16.976c4.993,3.9,13.356-3.748,13.356-3.748S13.019,8.55,12.866,5.948Z" transform="translate(0 0.682)"/><path class="s" d="M.239.094H.208V.28A.671.671,0,0,0,.239.094Z" transform="translate(12.198 0.402)"/><path class="s" d="M1.715,11.648a12.856,12.856,0,0,0,6.862-4.8C10.231,4.306,9.619,1.487,9.741.682,9.741.62,9.68.558,9.68.5L7.29,0,.123,6.01C.092,6.072.031,6.134,0,6.2a22.156,22.156,0,0,1,0,5.452A2.893,2.893,0,0,0,1.715,11.648Z" transform="translate(2.757)"/></g><g transform="translate(13.576 49.984)"><path class="w" d="M62.03,37.907c4.289-9.231-3.768-13.042-3.768-13.042a30.337,30.337,0,0,1,10.783,1.177L45.275,12.752s-3.584-1.8-9.772-5.018C29.284,4.512,21.32-.847,17.032.113S9.955,3.335,7.566,9.933,0,29.078,0,29.078l3.982,2.106a33.892,33.892,0,0,0,4.595,1.983c1.317-2.7,7.045-14.56,8.148-17.069,1.256-2.819,2.481-3.16,7.781.62S45.673,31.246,45.52,34.22c0,0-.061,1.518-2.542,6.784-2.42,5.142-4.442,8.24-4.932,17.069-.214,3.531-.153,18.494-.153,18.494s.735,1.89,4.625,2.416a18.527,18.527,0,0,0,4.595.155c.98-6.165,2.879-18.06,3.645-22.8C51.83,49.864,57.742,47.138,62.03,37.907Z" transform="translate(0 0)"/><path class="x" d="M.276.047.093.295A.758.758,0,0,0,.276.047Z" transform="translate(50.175 77.666)"/><path class="y" d="M29.438,5.476l-7.5-4.213A30.176,30.176,0,0,0,11.15.086s8.056,3.81,3.768,13.042S4.717,25.085,3.645,31.591C2.879,36.33.98,48.226,0,54.39a5.069,5.069,0,0,0,3.186-1.208l.184-.248S7.2,37.012,7.811,34.255c.643-2.726,7.811-10.625,11.456-13.847s10.139-6.567,10.446-9.293A19.932,19.932,0,0,0,29.438,5.476Z" transform="translate(47.112 24.779)"/><path class="y" d="M15.929,2.8c-5.3-3.779-6.525-3.47-7.781-.62C7.045,4.687,1.317,16.551,0,19.246a25,25,0,0,0,2.726.774,21.993,21.993,0,0,0,1.746-3.531c.643-1.766,7.015-10.78,7.015-10.78s4.319,3.067,10.966,6.908C30.908,17.512,36.943,20.3,36.943,20.3,37.1,17.326,21.228,6.576,15.929,2.8Z" transform="translate(8.577 13.951)"/></g><path class="u" d="M40.833.615a3.69,3.69,0,0,0-3.37-.31c-1.593.805-3.063,2.6-5.453,4.4-2.42,1.8-5.3,3.1-7.566,2.912-2.236-.155-1.93-2.664-1.93-2.664l-2.726.558S14,18.366,11.273,23.384c-2.726,5.049-4.809,7.311-6.433,7.961C3.247,32,2.6,32.151,1.777,32A6.175,6.175,0,0,1,0,31.19a20.654,20.654,0,0,1,4.656,7C6.433,42.59,5.79,44.7,10.292,47.3s7.566,2.912,12.375,2.757,6.433-.805,8.363,0A5.316,5.316,0,0,1,33.6,52.008s.306-11.214,1.777-16.418c1.44-5.2,3.063-7.961,3.86-8.767C40.006,25.986,40.833.615,40.833.615Z" transform="translate(57.104 30.74)"/><path class="p" d="M.312,15.974c.98,1.611,3,1.549,11.579-2.943C20.5,8.54,23.286,7.765,23.378,5.659c.061-2.137-1.715-4.12-2.359-4.771S19.243-.475,19.059.423a5.794,5.794,0,0,1-3,4.554c-2.6,1.487-3.829.774-3.829.774l-.4-1.859a1.312,1.312,0,0,0-2.022-.836A5.967,5.967,0,0,0,8.491,4.389c-1.256,1.766-5.943,7-6.923,7.992C.618,13.4-.576,14.487.312,15.974Z" transform="translate(0 88.83)"/><path class="r" d="M.238.186A33.869,33.869,0,0,0,1.1,12.732c1.44,4.895,2.573,7.094,6.831,6.072s6.126-2.571,6.923-4.43a4.6,4.6,0,0,0,.551-2.726c.276.124,1.041-.186,2.206-.589a3.32,3.32,0,0,0,1.96-4.647c-2.144-5.049-7.413-1.084-7.413-1.084L8.325,0Z" transform="translate(73.99 11.065)"/><path class="z" d="M1.838,3.6C1.378,3.785-.491,5.613.122,9.144s2.512,4.089,4.625,4.4c2.328.31,5.544-1.611,6.035-1.89.521-.279,1.133,1.487,1.869,3.934C13.386,18,13.723,19.026,14.09,19c1.011-.062,1.011-1.3,1.93-2.168a3.8,3.8,0,0,1,3.8-.805c1.195.527,2.052.527,2.236,2.385s-.245,1.642-.827,2.385a12.7,12.7,0,0,1-1.348,1.425l.306,4.275s4.993-4.12,6.831-8.116.276-6.35-.123-7.156-1.654-1.611-1.838-1.89,1.807-2.7-.582-5.266c-1.715-1.859-3.952-.929-4.289-1.053a7.4,7.4,0,0,0-6.678-3C9.465.161,8.148,1.74,6.953,3.475c-.98,1.394-2.083,1.8-2.91,1.611A5.278,5.278,0,0,1,1.838,3.6Z" transform="translate(71.349 0)"/><ellipse class="r" cx="3.737" cy="3.779" rx="3.737" ry="3.779" transform="translate(86.174 14.906)"/><path class="s" d="M1.757,3.5a1.771,1.771,0,0,0,1.77-1.754A1.741,1.741,0,0,0,1.77,0,1.771,1.771,0,0,0,0,1.754,1.741,1.741,0,0,0,1.757,3.5Z" transform="translate(87.625 20.023) rotate(-70.378)"/><path class="p" d="M7.766.166S6.664-1.2,4.887,3.884.813,14.2.261,16s-.368,4.089,1.9,4.956c3.094,1.177,6.494-.372,8.577-4.554a55.272,55.272,0,0,0,4.5-11.152c.551-2.478.521-4.43-.214-4.709a9.078,9.078,0,0,0-1.133,2.757c-1.47,4.833-2.542,3.562-2.788,4.089a.143.143,0,0,1-.276-.062c.061-1.084-.184-2.54-1.991-2.819a2.561,2.561,0,0,0-3,1.642Z" transform="translate(44.039 139.984)"/><ellipse class="z" cx="0.888" cy="1.084" rx="0.888" ry="1.084" transform="translate(79.19 17.198)"/><ellipse class="z" cx="0.735" cy="1.053" rx="0.735" ry="1.053" transform="translate(74.136 17.322)"/><path class="s" d="M.017,4.38c.214.589,1.1.527,1.96.527s1.44-.186,1.378-.712S2.406,1.437,2.192.818s-.49-1.58-1.011.217C.783,2.491-.136,4.009.017,4.38Z" transform="translate(75.191 18.208)"/><path class="aa" d="M1.524,3.088A2.705,2.705,0,0,1,.115,2.716a.33.33,0,0,1-.061-.434.288.288,0,0,1,.4-.062A2.591,2.591,0,0,0,3.086,2.1,6.17,6.17,0,0,0,5.2.145.271.271,0,0,1,5.6.052a.277.277,0,0,1,.092.4,5.884,5.884,0,0,1-2.359,2.2A4.092,4.092,0,0,1,1.524,3.088Z" transform="translate(75.614 22.505)"/><path class="s" d="M.01,1.054c.123.558,1.225.558,1.9.31.674-.217.827-.9.49-1.208S1.6.063,1.021.249C.47.4-.082.59.01,1.054Z" transform="translate(77.526 25.84)"/><path class="v" d="M26.283,1.5c-.49-5.39-3.4,4.895-4.84,12.267-1.44,7.342-2.91,14.219-2.42,20.569l.49,6.381a46.269,46.269,0,0,1-12.13.991C4.809,41.5,2.175,41.093,0,40.69c3.921,2.045,6.862,2.292,11.273,2.168,4.809-.155,6.433-.805,8.363,0a5.316,5.316,0,0,1,2.573,1.952s.306-11.214,1.777-16.418a39.617,39.617,0,0,1,2.328-6.381C26.374,19.1,26.711,6.274,26.283,1.5Z" transform="translate(68.5 37.938)"/><path class="s" d="M0,2.6,1.44,8.116a7.8,7.8,0,0,0,4.534.434A6.644,6.644,0,0,0,9.986,6.815L8.883,0Z" transform="translate(99.377 62.209)"/><path class="u" d="M1.281,1.659C3.211-.447,6.091-.6,9,1.5c3.37,2.447,3.523,7.311,5.79,15.117a51.06,51.06,0,0,0,5.146,12.36S18.5,33.691,12.217,34.5s-7.719,0-8.669-.805S.669,18.418.332,13.524C.332,13.524-.863,4.045,1.281,1.659Z" transform="translate(92.612 30.842)"/><path class="t" d="M0,3.16s1.256-.9,2.3-1.611c.429-.31.7-.682.919-.836s.521-.186.766-.341C4.258.186,4.5,0,4.5,0L5.851,1.735s-.276.186-.582.434c-.276.186-.429.558-.582.651-.245.186-.766.31-1.195.62L1.195,5.08Z" transform="translate(39.644 39.595)"/><path class="ab" d="M3.182,4.782c1.761,0,3.192-1.079,3.2-2.4S4.956,0,3.2,0,0,1.079,0,2.4,1.421,4.787,3.182,4.782Z" transform="translate(83.123 49.227) rotate(-75.665)"/><path class="ac" d="M1.977,3A1.8,1.8,0,0,0,3.963,1.5,1.781,1.781,0,0,0,1.985,0,1.8,1.8,0,0,0,0,1.507,1.781,1.781,0,0,0,1.977,3Z" transform="translate(84.122 48.303) rotate(-75.665)"/></g></g></g></svg>