<svg xmlns="http://www.w3.org/2000/svg" width="29.453" height="29.453" viewBox="0 0 29.453 29.453"><defs><style>.a{fill:#ffff06;}</style></defs><g transform="translate(0 0)"><g transform="translate(0 11.966)"><path class="a" d="M12.886,27.726A12.9,12.9,0,0,1,0,14.841v-.92A.92.92,0,0,1,.92,13h23.93a.92.92,0,0,1,.92.92v.92A12.9,12.9,0,0,1,12.886,27.726ZM1.841,14.841a11.045,11.045,0,1,0,22.09,0Z" transform="translate(0 -13)"/></g><g transform="translate(5.522 23.01)"><path class="a" d="M17.965,31.443h-9.2A2.765,2.765,0,0,1,6,28.682V25.92a.92.92,0,0,1,1.841,0v2.761a.921.921,0,0,0,.92.92h9.2a.921.921,0,0,0,.92-.92V25.92a.92.92,0,0,1,1.841,0v2.761A2.765,2.765,0,0,1,17.965,31.443Z" transform="translate(-6 -25)"/></g><g transform="translate(5.522 0)"><path class="a" d="M6.919,4.6a.92.92,0,0,1-.143-1.829L24.264.012a.92.92,0,1,1,.287,1.818L7.064,4.591A.964.964,0,0,1,6.919,4.6Z" transform="translate(-6 0.001)"/></g><g transform="translate(5.522 5.52)"><path class="a" d="M6.92,8.761a.92.92,0,0,1-.039-1.84L28.971,6a.9.9,0,0,1,.958.881.92.92,0,0,1-.882.958l-22.09.92Z" transform="translate(-6 -5.997)"/></g><g transform="translate(7.363 1.841)"><path class="a" d="M8.92,13.965a.92.92,0,0,1-.92-.92V2.92a.92.92,0,1,1,1.841,0V13.045A.92.92,0,0,1,8.92,13.965Z" transform="translate(-8 -2)"/></g><g transform="translate(11.045 0.921)"><path class="a" d="M12.92,10.2a.92.92,0,0,1-.92-.92V1.92a.92.92,0,0,1,1.841,0V9.284A.92.92,0,0,1,12.92,10.2Z" transform="translate(-12 -1)"/></g><g transform="translate(14.726 0.001)"><path class="a" d="M16.92,9.2a.92.92,0,0,1-.92-.92V.92a.92.92,0,1,1,1.841,0V8.284A.92.92,0,0,1,16.92,9.2Z" transform="translate(-16)"/></g></g></svg>