<svg xmlns="http://www.w3.org/2000/svg" width="21.127" height="21.127" viewBox="0 0 21.127 21.127"><defs><style>.a{fill:#71b24d;}</style></defs><g transform="translate(0)"><path class="a" d="M21.447,16.211h0c-.058-.046-4.25-3.068-5.4-2.851-.549.1-.863.472-1.494,1.222-.1.121-.345.411-.535.618a8.815,8.815,0,0,1-1.163-.473A9.648,9.648,0,0,1,8.4,10.275a8.773,8.773,0,0,1-.473-1.163c.207-.19.5-.434.621-.538.746-.627,1.122-.941,1.219-1.492.2-1.141-2.82-5.362-2.852-5.4A1.612,1.612,0,0,0,5.718,1C4.494,1,1,5.533,1,6.3c0,.044.064,4.554,5.625,10.211,5.651,5.555,10.161,5.619,10.2,5.619.764,0,5.3-3.494,5.3-4.718A1.608,1.608,0,0,0,21.447,16.211Z" transform="translate(-1 -1)"/></g></svg>