<svg xmlns="http://www.w3.org/2000/svg" width="13" height="12" viewBox="0 0 13 12"><defs><style>.a{fill:#535b72;}</style></defs><path class="a" d="M6.5,12a.478.478,0,0,1-.283-.092C5.963,11.721,0,7.287,0,3.556A3.642,3.642,0,0,1,3.714,0,3.642,3.642,0,0,1,7.429,3.556a.465.465,0,0,1-.929,0A2.731,2.731,0,0,0,3.714.889,2.731,2.731,0,0,0,.929,3.556c0,2.874,4.4,6.512,5.571,7.431,1.171-.918,5.571-4.56,5.571-7.431A2.731,2.731,0,0,0,9.286.889,2.872,2.872,0,0,0,8.1,1.142.473.473,0,0,1,7.48.93.437.437,0,0,1,7.7.338,3.827,3.827,0,0,1,9.286,0,3.642,3.642,0,0,1,13,3.556c0,3.732-5.963,8.165-6.217,8.352A.478.478,0,0,1,6.5,12Z"/></svg>