<svg xmlns="http://www.w3.org/2000/svg" viewBox="0 0 24 20" width="24" height="20">
	<style>
		tspan { white-space:pre }
		.shp0 { fill: #535b72 } 
	</style>
	<g id="Layer 1">
		<g id="&lt;Group&gt;">
			<g id="noun Restaurant 2195602 1 ">
				<g id="Group 5-2 1 ">
					<path id="Path 13 1 " fill-rule="evenodd" class="shp0" d="M12.18 0.72C13.57 0.73 14.7 1.86 14.71 3.25C14.71 3.64 14.62 4.02 14.44 4.36C19.05 5.42 22.31 9.51 22.31 14.23L22.31 15.92L2.04 15.92L2.04 14.23C2.04 9.51 5.31 5.42 9.91 4.36C9.74 4.02 9.65 3.64 9.64 3.25C9.65 1.86 10.78 0.73 12.18 0.72L12.18 0.72ZM12.18 2.41C12.17 2.41 12.16 2.41 12.15 2.41C11.69 2.42 11.33 2.8 11.33 3.25C11.33 3.72 11.71 4.1 12.18 4.1C12.64 4.1 13.02 3.72 13.02 3.25C13.02 2.79 12.64 2.41 12.18 2.41ZM12.18 5.79C12.15 5.79 12.13 5.79 12.1 5.79C7.46 5.81 3.71 9.59 3.73 14.23L20.62 14.23C20.62 14.21 20.62 14.18 20.62 14.16C20.6 9.52 16.82 5.77 12.18 5.79L12.18 5.79ZM12.18 7.48C13.74 7.48 15.25 8.1 16.36 9.21L15.16 10.4C14.37 9.61 13.3 9.17 12.18 9.17L12.18 7.48L12.18 7.48ZM24 17.61L24 19.3L0.35 19.3L0.35 17.61L24 17.61Z" />
				</g>
			</g>
		</g>
	</g>
</svg>