<svg xmlns="http://www.w3.org/2000/svg" width="27.62" height="29.458" viewBox="0 0 27.62 29.458"><defs><style>.a{fill:#6a6a6a;}</style></defs><g transform="translate(0 0)"><g transform="translate(8.719 3.319)"><path class="a" d="M25.132,19.182a.922.922,0,0,1-.875-.634A19.326,19.326,0,0,0,11.105,5.4a.921.921,0,1,1,.571-1.751A21.32,21.32,0,0,1,26.006,17.976a.922.922,0,0,1-.59,1.162A.9.9,0,0,1,25.132,19.182Z" transform="translate(-10.47 -3.6)"/></g><g transform="translate(11.968 5.205)"><path class="a" d="M17.682,12.415A3.685,3.685,0,0,1,14,8.733a3.626,3.626,0,0,1,1.416-2.892A.92.92,0,0,1,16.54,7.3a1.8,1.8,0,0,0-.7,1.435,1.839,1.839,0,0,0,3.544.689.921.921,0,0,1,1.71.683A3.659,3.659,0,0,1,17.682,12.415Z" transform="translate(-14 -5.649)"/></g><g transform="translate(8.286 12.891)"><path class="a" d="M11.841,16.761a.918.918,0,0,1-.651-.27l-.92-.92a.92.92,0,1,1,1.3-1.3l.92.92a.92.92,0,0,1-.651,1.571Z" transform="translate(-10 -14)"/></g><g transform="translate(1.402 16.569)"><path class="a" d="M5.263,24.442A3.164,3.164,0,0,1,2.7,23.171a.92.92,0,0,1,1.474-1.1,1.342,1.342,0,0,0,1.085.534,1.381,1.381,0,1,0,0-2.761,1.178,1.178,0,0,0-.14,0,.921.921,0,0,1-.2-1.831,3.223,3.223,0,1,1,.339,6.429Z" transform="translate(-2.52 -17.995)"/></g><g transform="translate(0 0)"><path class="a" d="M12.045,29.452a2.765,2.765,0,0,1-2.761-2.761V25.5L4.888,27.39a2.793,2.793,0,0,1-3.666-3.669L10.7,1.688A2.775,2.775,0,0,1,14.144.137,21.32,21.32,0,0,1,28.475,14.467a2.775,2.775,0,0,1-1.556,3.443l-4.191,1.8a.921.921,0,0,0-.558.846V24.85a2.775,2.775,0,0,1-2.761,2.761,2.765,2.765,0,0,1-2.761-2.761v-.92a.881.881,0,0,0-.265-.639.9.9,0,0,0-.655-.282.921.921,0,0,0-.92.92v2.761a2.775,2.775,0,0,1-2.761,2.761ZM9.284,23.66a1.842,1.842,0,0,1,1.84,1.842v1.189a.921.921,0,0,0,.92.92.888.888,0,0,0,.639-.264.9.9,0,0,0,.282-.656V23.93a2.765,2.765,0,0,1,2.761-2.761,2.776,2.776,0,0,1,2.761,2.761v.92a.921.921,0,0,0,.92.92.888.888,0,0,0,.639-.264.9.9,0,0,0,.282-.656V20.558A2.759,2.759,0,0,1,22,18.022l4.2-1.8a.947.947,0,0,0,.528-1.179A19.327,19.327,0,0,0,13.572,1.887.945.945,0,0,0,12.4,2.41L2.913,24.45a.981.981,0,0,0-.049.6.946.946,0,0,0,.695.7.964.964,0,0,0,.6-.047l4.4-1.889A1.856,1.856,0,0,1,9.284,23.66Z" transform="translate(-0.997 0.006)"/></g><g transform="translate(11.048 15.653)"><path class="a" d="M18.522,21.142a.92.92,0,0,1-.92-.92,1.381,1.381,0,0,0-2.761,0,.92.92,0,1,1-1.841,0,3.221,3.221,0,0,1,6.443,0A.92.92,0,0,1,18.522,21.142Z" transform="translate(-13 -17)"/></g></g></svg>