<svg xmlns="http://www.w3.org/2000/svg" width="13" height="13" viewBox="0 0 13 13"><defs><style>.a,.b{fill:none;stroke:#8a94a3;stroke-miterlimit:10;}.a{stroke-linecap:square;}</style></defs><g transform="translate(0.5 0.5)"><path class="a" d="M7.636,3.818c0,2.356-3.818,6.2-3.818,6.2S0,6.175,0,3.818A3.783,3.783,0,0,1,3.818,0,3.783,3.783,0,0,1,7.636,3.818Z" transform="translate(2.182)"/><circle class="a" cx="1.091" cy="1.091" r="1.091" transform="translate(4.909 2.727)"/><path class="b" d="M9.273,0C10.915.292,12,.8,12,1.372c0,.9-2.686,1.636-6,1.636S0,2.276,0,1.372C0,.8,1.085.292,2.727,0" transform="translate(0 8.992)"/></g></svg>